# xmcd
# 
# Track frame offsets:
#     150
#     23520
#     47922
#     70425
#     85662
#     109952
#     130915
#     156992
#     185445
#     207377
#     229747
#     254230
#     287692
# 
# Disc length: 4116
# 
# Revision: 10
# Processed by: cddbd v1.5.2PL0 Copyright (c) Steve Scherf et al.
# Submitted via: fre:ac v1.1beta1pre5
# 
DISCID=c010120d
DTITLE=浜田 省吾 - 初秋
DYEAR=2003
DGENRE=JPop
TTITLE0=君に捧げるlove song
TTITLE1=PAIN
TTITLE2=悲しみの岸辺
TTITLE3=ガラスの部屋
TTITLE4=A LONG GOODBYE
TTITLE5=NEW YEAR'S EVE
TTITLE6=GIVE ME ONE MORE CHANCE
TTITLE7=君の名を呼ぶ
TTITLE8=紫陽花のうた
TTITLE9=永遠の恋人
TTITLE10=星の指輪
TTITLE11=初秋
TTITLE12=わが心のマリア
EXTD=SACD-HYBRID ESCL-10004\nEARLY AUTUMN
EXTT0=
EXTT1=
EXTT2=
EXTT3=
EXTT4=
EXTT5=
EXTT6=
EXTT7=
EXTT8=
EXTT9=
EXTT10=
EXTT11=
EXTT12=
PLAYORDER=
